<?xml version="1.0" encoding="iso-8859-1"?>
<!-- Generator: Adobe Illustrator 19.0.0, SVG Export Plug-In . SVG Version: 6.00 Build 0)  -->
<svg version="1.1" id="Layer_1" xmlns="http://www.w3.org/2000/svg" xmlns:xlink="http://www.w3.org/1999/xlink" x="0px" y="0px"
	 viewBox="0 0 512.001 512.001" style="enable-background:new 0 0 512.001 512.001;" xml:space="preserve" fill="#ade1e5">
<g>
	<g>
		<path d="M256,0c-35.29,0-64,28.71-64,64s28.71,64,64,64s64-28.71,64-64S291.29,0,256,0z M256,108.307
			c-24.431,0-44.308-19.876-44.308-44.308S231.569,19.692,256,19.692S300.308,39.569,300.308,64S280.432,108.307,256,108.307z"/>
	</g>
</g>
<g>
	<g>
		<path d="M315.077,128H256h-59.077c-27.146,0-49.231,22.085-49.231,49.231v98.461c0,23.774,16.941,43.667,39.385,48.242V471.95
			c0,21.532,17.205,39.492,38.352,40.036c0.349,0.009,0.699,0.014,1.048,0.014c10.332,0,20.052-3.946,27.472-11.177
			c0.715-0.696,1.398-1.414,2.052-2.152c0.661,0.746,1.353,1.472,2.075,2.175c7.686,7.478,17.834,11.443,28.564,11.139
			c21.11-0.579,38.285-18.516,38.285-39.984V323.934c22.443-4.574,39.385-24.468,39.385-48.242V177.23
			C364.308,150.085,342.224,128,315.077,128z M344.616,275.692c0,12.835-8.232,23.78-19.692,27.845v-27.845
			c0-5.438-4.409-9.846-9.846-9.846c-5.437,0-9.846,4.408-9.846,9.846v39.385V472c0,10.904-8.583,20.009-19.133,20.299
			c-5.383,0.136-10.448-1.83-14.291-5.569c-3.843-3.741-5.961-8.753-5.961-14.115v-59.077c0-5.438-4.409-9.846-9.846-9.846
			c-5.438,0-9.846,4.408-9.846,9.846v59.077c0,5.356-2.113,10.365-5.95,14.105c-3.835,3.738-8.882,5.714-14.268,5.581
			c-10.568-0.272-19.167-9.401-19.167-20.351V315.076v-39.385c0-5.438-4.408-9.846-9.846-9.846c-5.438,0-9.846,4.408-9.846,9.846
			v27.845c-11.46-4.065-19.692-15.008-19.692-27.845V177.23c0-16.287,13.251-29.538,29.538-29.538h118.154
			c16.287,0,29.538,13.251,29.538,29.538V275.692z"/>
	</g>
</g>
<g>
	<g>
		<path d="M203.885,239.192c-1.831-1.831-4.372-2.885-6.961-2.885s-5.13,1.054-6.961,2.885c-1.831,1.831-2.885,4.372-2.885,6.961
			s1.054,5.13,2.885,6.961c1.831,1.831,4.372,2.885,6.961,2.885s5.13-1.054,6.961-2.885c1.831-1.831,2.885-4.372,2.885-6.961
			S205.716,241.024,203.885,239.192z"/>
	</g>
</g>
<g>
</g>
<g>
</g>
<g>
</g>
<g>
</g>
<g>
</g>
<g>
</g>
<g>
</g>
<g>
</g>
<g>
</g>
<g>
</g>
<g>
</g>
<g>
</g>
<g>
</g>
<g>
</g>
<g>
</g>
</svg>
